HIERARCHY
ROOT Hips
{
	OFFSET 0.00000 0.00000 0.00000
	CHANNELS 6 Xposition Yposition Zposition Yrotation Zrotation Xrotation 
	JOINT Lumbar
	{
		OFFSET 0 0 0
		CHANNELS 3 Zrotation Xrotation Yrotation
		JOINT Neck
		{
			OFFSET 0.00 0.2701 0.00
			CHANNELS 3 Zrotation Xrotation Yrotation
			End Site
			{
				OFFSET 0.00 0.1379 0.00
			}
		}
		JOINT RightShoulder
		{
			OFFSET 0.0119 0.2289 0.1181
			CHANNELS 3 Zrotation Xrotation Yrotation
			JOINT RightElbow
			{
				OFFSET 0.00 -0.1475 0.00
				CHANNELS 2 Zrotation Yrotation
				JOINT RightWrist
				{
					OFFSET 0.00 -0.1605 0.00
					CHANNELS 2 Zrotation Xrotation
					End Site
					{
						OFFSET 0.0040 -0.1068 0.0006
					}
				}
			}
		}
		JOINT LeftShoulder
		{
			OFFSET 0.0119 0.2289 -0.1181
			CHANNELS 3 Zrotation Xrotation Yrotation
			JOINT LeftElbow
			{
				OFFSET 0.00 -0.1475 0.00
				CHANNELS 2 Zrotation Yrotation
				JOINT LeftWrist
				{
					OFFSET 0.00 -0.1605 0.00
					CHANNELS 2 Zrotation Xrotation
					End Site
					{
						OFFSET 0.0040 -0.1068 -0.0006
					}
				}
			}
		}
	}
	JOINT RightHip
	{
		OFFSET 0.0316 -0.0424 0.0458
		CHANNELS 3 Zrotation Xrotation Yrotation
		JOINT RightKnee
		{
			OFFSET 0.00 -0.2438 0.00
			CHANNELS 1 Zrotation
			JOINT RightAnkle
			{
				OFFSET 0.00 -0.2449 0.00
				CHANNELS 3 Zrotation Xrotation Yrotation
				End Site
				{
					OFFSET 0.1237 -0.0542 0.0051
				}
			}
		}
	}
	JOINT LeftHip
	{
		OFFSET 0.0316 -0.0424 -0.0458
		CHANNELS 3 Zrotation Xrotation Yrotation
		JOINT LeftKnee
		{
			OFFSET 0.00 -0.2438 0.00
			CHANNELS 1 Zrotation
			JOINT LeftAnkle
			{
				OFFSET 0.00 -0.2449 0.00
				CHANNELS 3 Zrotation Xrotation Yrotation
				End Site
				{
					OFFSET 0.1237 -0.0542 -0.0051
				}
			}
		}
	}
}
MOTION
Frames: 19
Frame Time: 0.02
0.00128 -0.01323 0.16058 -565.43096 -28.33661 -0.83212 23.76465 8.45387 3.68688 -6.8696 1.3017 -0.82985 0.63055 -12.49992 -7.33108 21.63908 86.90139 -4.40964 1.33121 -18.5989 24.01371 -13.02257 38.22201 -114.21303 7.69816 -6.29843 56.18944 -16.06042 -2.16204 -38.56075 -13.4718 -4.43438 -3.3532 38.16183 -3.608 18.61439 -28.40694 -5.91736 3.44054 2.43281
0.0028 -0.01332 0.16226 -565.12827 -28.77433 -0.54036 23.1369 8.93406 3.63384 -6.75393 1.08274 -0.82988 1.01865 -12.46202 -7.39325 21.75044 86.8129 -4.67671 0.91188 -18.54208 24.18968 -13.69651 38.92566 -111.95516 7.26893 -6.41664 56.73483 -16.14771 -1.27343 -38.24604 -13.64034 -4.46596 -3.38229 38.8308 -3.93949 18.84172 -28.32055 -5.9235 3.40704 2.41345
0.00427 -0.01339 0.16396 -564.89598 -29.26832 -0.25175 22.56673 9.39796 3.7479 -6.68121 0.93495 -0.82991 1.33823 -12.42419 -7.39797 21.86517 86.72698 -4.91352 0.51159 -18.3707 24.29818 -14.30698 39.73821 -109.21439 6.76432 -6.57472 57.42473 -16.17703 -0.20128 -38.00342 -13.85611 -4.49681 -3.41391 39.59655 -4.33772 18.77913 -28.25252 -5.94957 3.41878 2.41702
0.00574 -0.01348 0.16563 -564.63317 -29.72598 0.03683 21.9748 9.86583 3.7899 -6.59975 0.75692 -0.82994 1.67981 -12.38288 -7.44007 21.96669 86.63487 -5.16267 0.10945 -18.25564 24.43076 -14.9356 40.50428 -106.7355 6.30074 -6.70655 58.03594 -16.23774 0.76412 -37.7349 -14.04459 -4.52703 -3.44342 40.30217 -4.699 18.86146 -28.1782 -5.96548 3.40818 2.40932
0.00733 -0.01354 0.16741 -564.36368 -30.23022 0.33232 21.36051 10.34912 3.81446 -6.47356 0.56698 -0.82998 2.06074 -12.35877 -7.42289 22.12366 86.56694 -5.41549 -0.32155 -18.12293 24.59323 -15.61704 41.26432 -104.02925 5.80144 -6.86176 58.70258 -16.27644 1.82939 -37.43455 -14.25756 -4.56181 -3.47729 41.07703 -5.0862 18.89879 -28.0944 -5.98549 3.40357 2.40447
0.00864 -0.01365 0.16895 -564.12499 -30.65005 0.6121 20.80894 10.79579 3.91454 -6.45025 0.42018 -0.83 2.34254 -12.29802 -7.5198 22.16555 86.44902 -5.65456 -0.68844 -18.00063 24.67663 -16.1701 42.06038 -101.6975 5.3608 -6.98231 59.28713 -16.34789 2.72733 -37.21862 -14.43055 -4.58668 -3.50253 41.72954 -5.43587 18.95617 -28.03483 -6.00194 3.39789 2.39945
0.00922 -0.01388 0.16984 -563.95452 -30.82678 0.85268 20.40429 11.14853 4.19342 -6.70264 0.37166 -0.83003 2.37477 -12.13431 -7.94725 21.86413 86.18136 -5.86054 -0.87543 -17.92305 24.55829 -16.3887 42.92679 -100.56003 5.1088 -6.99214 59.61917 -16.51873 3.14832 -37.21974 -14.48438 -4.58497 -3.50387 42.02896 -5.66769 19.14919 -28.04016 -6.00325 3.37719 2.38798
0.0095 -0.01414 0.17047 -563.81264 -30.91581 1.07686 20.06364 11.46421 4.54069 -7.05636 0.36502 -0.83005 2.30834 -11.93401 -8.49194 21.45006 85.86482 -6.05432 -0.99963 -17.86192 24.36264 -16.47861 43.82487 -99.81949 4.91859 -6.96778 59.86193 -16.72538 3.38959 -37.30358 -14.4959 -4.57317 -3.49632 42.20028 -5.85932 19.36931 -28.06896 -6.00045 3.35424 2.37572
0.0099 -0.01438 0.1712 -563.65748 -31.04239 1.30623 19.7018 11.79477 4.84971 -7.36255 0.34198 -0.83007 2.28203 -11.75081 -8.98502 21.10272 85.57732 -6.25589 -1.15766 -17.80102 24.20173 -16.62324 44.7095 -98.87216 4.69513 -6.9645 60.13933 -16.91927 3.69315 -37.34878 -14.525 -4.56553 -3.49245 42.42471 -6.0683 19.56944 -28.0855 -5.99991 3.33319 2.36418
0.01036 -0.01465 0.172 -563.50592 -31.18062 1.545 19.30771 12.1334 5.19504 -7.67754 0.31072 -0.83009 2.27265 -11.56428 -9.47298 20.69055 85.26111 -6.44766 -1.29353 -17.7038 24.03917 -16.78099 45.59535 -98.00263 4.48841 -6.94065 60.44669 -17.09691 4.08327 -37.40037 -14.56265 -4.5596 -3.49016 42.67417 -6.28353 19.79182 -28.10925 -5.99843 3.31002 2.35194
0.01064 -0.01487 0.1726 -563.3528 -31.27307 1.76041 18.99633 12.44623 5.47848 -7.99637 0.30505 -0.83011 2.20619 -11.37774 -9.99502 20.38595 84.99314 -6.65641 -1.45982 -17.68742 23.86379 -16.88252 46.48312 -97.09169 4.26542 -6.94898 60.66872 -17.31689 4.25014 -37.45801 -14.57191 -4.54781 -3.48251 42.8397 -6.47521 19.97831 -28.12352 -5.99765 3.29009 2.34064
0.01047 -0.01491 0.17271 -563.18763 -31.25978 1.9148 18.88851 12.70024 5.57661 -8.31233 0.36436 -0.83011 2.00002 -11.18506 -10.62834 20.41111 84.86929 -6.92346 -1.73463 -17.89202 23.66145 -16.85272 47.38075 -95.79794 3.95757 -7.07319 60.67465 -17.65097 3.8285 -37.50655 -14.51249 -4.52154 -3.46154 42.80484 -6.61259 20.05786 -28.10415 -5.99996 3.28007 2.33224
0.01013 -0.0149 0.17262 -563.01974 -31.20322 2.04637 18.86313 12.92899 5.60901 -8.62634 0.44683 -0.83011 1.74119 -10.99654 -11.28389 20.54732 84.79574 -7.20667 -2.04059 -18.17727 23.45111 -16.77252 48.27581 -94.47948 3.63575 -7.22772 60.59741 -18.02491 3.19259 -37.55916 -14.4261 -4.48996 -3.43567 42.68931 -6.72714 20.10215 -28.07467 -6.003 3.27309 2.32467
0.00986 -0.01491 0.17262 -562.85322 -31.16684 2.18873 18.80575 13.16721 5.6689 -8.93364 0.51531 -0.83012 1.51105 -10.81586 -11.89925 20.62937 84.70002 -7.47702 -2.32635 -18.42552 23.25171 -16.72063 49.16412 -93.29232 3.33765 -7.35549 60.55911 -18.37789 2.66169 -37.613 -14.35195 -4.46118 -3.4124 42.61036 -6.85122 20.16459 -28.05083 -6.00553 3.26426 2.31656
0.0096 -0.01492 0.17264 -562.68705 -31.12565 2.32869 18.72762 13.41272 5.74054 -9.27661 0.59973 -0.83012 1.25782 -10.59242 -12.6448 20.72345 84.60019 -7.76993 -2.63543 -18.67737 23.01899 -16.64131 50.08932 -91.62791 2.97038 -7.53528 60.51325 -18.74694 2.08372 -37.65612 -14.27541 -4.42999 -3.38696 42.52787 -6.97759 20.21821 -28.02333 -6.00871 3.25742 2.30918
0.00928 -0.01493 0.17257 -562.51927 -31.08485 2.46851 18.71136 13.63742 5.77217 -9.54344 0.65611 -0.83012 1.04086 -10.46 -13.12403 20.81982 84.52088 -8.02023 -2.90415 -18.93862 22.85449 -16.60897 50.93377 -90.92629 2.74047 -7.61638 60.46419 -19.08797 1.56613 -37.72225 -14.19927 -4.40319 -3.36533 42.43462 -7.09421 20.28229 -28.00084 -6.01071 3.24708 2.30042
0.00886 -0.01495 0.17228 -562.34641 -31.06003 2.61291 18.84611 13.81181 5.70023 -9.60047 0.62728 -0.83012 0.94311 -10.57387 -12.85312 20.9001 84.4915 -8.14554 -3.05412 -19.22454 22.88336 -16.71746 51.58033 -93.06373 2.91573 -7.40011 60.42962 -19.37358 1.1708 -37.84355 -14.11962 -4.38549 -3.35238 42.33723 -7.19012 20.37703 -27.9936 -6.0095 3.22744 2.28813
0.00839 -0.01497 0.17192 -562.17221 -31.03669 2.75809 19.03979 13.96607 5.59154 -9.5805 0.56958 -0.83012 0.88325 -10.77997 -12.31502 20.9785 84.48026 -8.22802 -3.1626 -19.51403 22.98099 -16.87536 52.1412 -96.13711 3.22532 -7.08681 60.39464 -19.62445 0.8597 -37.98871 -14.0433 -4.3731 -3.34394 42.23135 -7.2771 20.48441 -27.99182 -6.00691 3.20406 2.27435
0.00793 -0.01499 0.17159 -561.99921 -31.01032 2.90344 19.20606 14.12918 5.5055 -9.59519 0.52629 -0.83012 0.80222 -10.94686 -11.90425 21.05521 84.45725 -8.33252 -3.29028 -19.78926 23.04552 -17.01271 52.72481 -98.66483 3.45822 -6.82965 60.35825 -19.86904 0.57816 -38.12746 -13.97345 -4.36135 -3.33559 42.12614 -7.36796 20.59076 -27.9881 -6.00503 3.18163 2.26091
